<?xml version="1.0" standalone="no"?>
<!DOCTYPE svg PUBLIC "-//W3C//DTD SVG 20010904//EN"
 "http://www.w3.org/TR/2001/REC-SVG-20010904/DTD/svg10.dtd">
<svg version="1.0" xmlns="http://www.w3.org/2000/svg"
 width="260.000000pt" height="260.000000pt" viewBox="0 0 260.000000 260.000000"
 preserveAspectRatio="xMidYMid meet">
<metadata>
Created by potrace 1.14, written by Peter Selinger 2001-2017
</metadata>
<g transform="translate(0.000000,260.000000) scale(0.100000,-0.100000)"
fill="#000000" stroke="none">
<path d="M0 1300 l0 -1300 1300 0 1300 0 0 1300 0 1300 -1300 0 -1300 0 0
-1300z m386 126 c46 -132 84 -246 84 -253 0 -11 -13 -13 -52 -11 -51 3 -52 3
-66 46 l-14 43 -101 -3 -100 -3 -12 -35 c-11 -33 -14 -35 -63 -38 -29 -2 -52
1 -52 5 0 8 136 407 159 466 10 27 13 28 72 25 l61 -3 84 -239z m639 225 c48
-22 69 -44 90 -95 27 -65 1 -146 -58 -185 l-26 -17 54 -92 54 -92 -54 0 -53 0
-48 85 c-48 83 -50 85 -86 85 l-37 0 -3 -87 -3 -88 -45 0 -45 0 -3 253 -2 252
112 0 c88 0 122 -4 153 -19z m730 -31 l0 -45 -67 -3 -68 -3 0 -199 0 -200 -50
0 -50 0 0 200 0 200 -65 0 -65 0 0 50 0 50 183 -2 182 -3 0 -45z m546 -60 c21
-58 60 -169 87 -247 l51 -143 -54 0 -53 0 -14 43 -15 42 -99 0 -99 0 -15 -42
-14 -43 -54 0 c-39 0 -53 3 -50 13 3 6 42 119 88 250 l83 238 61 -3 61 -3 36
-105z m-1301 -540 c0 -5 -7 -10 -15 -10 -8 0 -15 5 -15 10 0 6 7 10 15 10 8 0
15 -4 15 -10z m70 -25 c0 -8 9 -15 20 -15 11 0 20 -4 20 -10 0 -5 -9 -10 -20
-10 -18 0 -20 -7 -20 -55 0 -48 2 -55 20 -55 11 0 20 -4 20 -10 0 -14 -33 -13
-48 2 -7 7 -12 36 -12 65 0 40 -4 53 -15 53 -8 0 -15 5 -15 10 0 6 7 10 15 10
8 0 15 7 15 15 0 8 5 15 10 15 6 0 10 -7 10 -15z m520 0 c0 -8 9 -15 20 -15
11 0 20 -4 20 -10 0 -5 -9 -10 -20 -10 -18 0 -20 -7 -20 -55 0 -48 2 -55 20
-55 11 0 20 -4 20 -10 0 -16 -47 -11 -54 6 -3 9 -6 38 -6 65 0 37 -4 49 -15
49 -8 0 -15 5 -15 10 0 6 7 10 15 10 8 0 15 7 15 15 0 8 5 15 10 15 6 0 10 -7
10 -15z m-600 -90 c0 -43 -4 -75 -10 -75 -11 0 -14 133 -3 143 12 13 13 7 13
-68z m345 50 c30 -30 32 -64 4 -99 -26 -33 -79 -36 -109 -6 -30 30 -27 83 6
109 35 28 69 26 99 -4z m77 -45 l3 -55 35 0 35 0 3 55 c5 87 22 86 22 -1 l0
-76 -46 -2 c-65 -2 -74 9 -74 87 0 80 17 73 22 -8z m319 59 c11 -5 17 -14 14
-19 -4 -6 -13 -5 -24 2 -10 6 -26 8 -35 5 -25 -10 -19 -36 12 -43 38 -9 52
-23 52 -50 0 -17 -7 -25 -25 -30 -36 -9 -75 3 -75 23 0 13 3 14 12 5 7 -7 25
-12 40 -12 41 0 35 26 -9 47 -42 20 -54 50 -27 70 22 16 39 16 65 2z m161 -3
c42 -32 42 -103 -1 -125 -59 -32 -129 12 -117 74 11 55 76 84 118 51z m90
-103 c13 -16 50 -17 66 -1 7 7 12 36 12 65 0 29 5 53 10 53 6 0 10 -32 10 -75
0 -43 -4 -75 -10 -75 -5 0 -10 5 -10 12 0 9 -3 9 -12 0 -20 -20 -65 -14 -82
10 -16 23 -22 109 -8 122 4 4 8 -16 10 -45 2 -29 8 -59 14 -66z m158 106 c0
-8 5 -7 15 1 9 7 18 10 22 6 4 -3 -3 -13 -15 -22 -18 -12 -22 -25 -22 -70 0
-30 -4 -54 -10 -54 -6 0 -10 32 -10 75 0 43 4 75 10 75 6 0 10 -5 10 -11z
m175 -9 c20 -22 14 -26 -17 -9 -52 28 -106 -27 -74 -76 18 -27 63 -34 84 -13
6 6 15 8 19 4 13 -12 -28 -36 -62 -36 -55 0 -87 58 -61 109 24 45 79 56 111
21z m160 -5 c14 -13 25 -33 25 -44 0 -18 -8 -20 -67 -23 -64 -3 -66 -4 -49
-20 20 -21 66 -24 84 -6 6 6 15 8 19 4 13 -13 -28 -36 -63 -36 -67 0 -96 89
-43 133 30 24 66 21 94 -8z"/>
<path d="M203 1445 l-31 -95 64 0 c35 0 64 3 64 7 0 13 -52 168 -59 175 -4 4
-21 -35 -38 -87z"/>
<path d="M860 1500 l0 -70 63 0 c34 0 67 4 73 8 20 13 36 54 30 77 -11 43 -33
55 -102 55 l-64 0 0 -70z"/>
<path d="M2172 1460 c-18 -52 -32 -98 -32 -103 0 -4 30 -7 66 -7 60 0 65 2 59
19 -3 11 -18 57 -34 103 l-28 83 -31 -95z"/>
<path d="M1246 944 c-19 -18 -21 -65 -4 -82 17 -17 64 -15 82 4 21 21 20 57
-2 77 -23 21 -56 22 -76 1z"/>
<path d="M1806 938 c-21 -29 -20 -51 2 -71 26 -24 68 -21 86 5 21 30 20 44 -4
68 -27 27 -65 26 -84 -2z"/>
<path d="M2393 948 c-27 -35 -25 -38 31 -38 58 0 67 8 40 34 -19 19 -58 21
-71 4z"/>
</g>
</svg>
